<svg width="522" height="499" viewBox="0 0 522 499" fill="none" xmlns="http://www.w3.org/2000/svg">
<circle cx="261.5" cy="249.5" r="249.5" fill="#00A8CC"/>
<path d="M52.3547 223.64H70.1147V263H84.8347V277H52.3547V223.64ZM86.4672 250.36C86.4672 246.52 87.1872 242.893 88.6272 239.48C90.1205 236.067 92.1205 233.107 94.6272 230.6C97.1872 228.04 100.174 226.04 103.587 224.6C107.001 223.107 110.627 222.36 114.467 222.36C118.307 222.36 121.934 223.107 125.347 224.6C128.761 226.04 131.721 228.04 134.227 230.6C136.787 233.107 138.787 236.067 140.227 239.48C141.721 242.893 142.467 246.52 142.467 250.36C142.467 254.2 141.721 257.827 140.227 261.24C138.787 264.653 136.787 267.64 134.227 270.2C131.721 272.707 128.761 274.707 125.347 276.2C121.934 277.64 118.307 278.36 114.467 278.36C110.627 278.36 107.001 277.64 103.587 276.2C100.174 274.707 97.1872 272.707 94.6272 270.2C92.1205 267.64 90.1205 264.653 88.6272 261.24C87.1872 257.827 86.4672 254.2 86.4672 250.36ZM103.267 250.36C103.267 251.907 103.561 253.373 104.147 254.76C104.734 256.093 105.534 257.267 106.547 258.28C107.561 259.293 108.734 260.093 110.067 260.68C111.454 261.267 112.921 261.56 114.467 261.56C116.014 261.56 117.454 261.267 118.787 260.68C120.174 260.093 121.374 259.293 122.387 258.28C123.401 257.267 124.201 256.093 124.787 254.76C125.374 253.373 125.667 251.907 125.667 250.36C125.667 248.813 125.374 247.373 124.787 246.04C124.201 244.653 123.401 243.453 122.387 242.44C121.374 241.427 120.174 240.627 118.787 240.04C117.454 239.453 116.014 239.16 114.467 239.16C112.921 239.16 111.454 239.453 110.067 240.04C108.734 240.627 107.561 241.427 106.547 242.44C105.534 243.453 104.734 244.653 104.147 246.04C103.561 247.373 103.267 248.813 103.267 250.36ZM146.886 223.64H160.886L175.606 244.2V223.64H192.326V277H178.246L163.606 256.52V277H146.886V223.64ZM197.902 223.64H229.342V237.64H214.942V243.56H229.102V256.84H214.942V263H229.902V277H197.902V223.64ZM250.714 223.64H267.754V241.8H277.274V223.64H294.394V277H277.274V257.24H267.754V277H250.714V223.64ZM300.011 223.64H318.091V277H300.011V223.64ZM365.203 243.96C365.203 247.64 364.563 250.787 363.283 253.4C362.003 255.96 360.243 258.04 358.003 259.64C355.816 261.24 353.229 262.413 350.243 263.16C347.309 263.907 344.136 264.28 340.723 264.28V277H323.683V223.64H340.723C344.136 223.64 347.309 224.013 350.243 224.76C353.229 225.507 355.816 226.68 358.003 228.28C360.243 229.88 362.003 231.987 363.283 234.6C364.563 237.16 365.203 240.28 365.203 243.96ZM340.723 249.88H341.443C343.683 249.88 345.283 249.373 346.243 248.36C347.256 247.293 347.763 245.827 347.763 243.96C347.763 242.093 347.256 240.653 346.243 239.64C345.283 238.573 343.683 238.04 341.443 238.04H340.723V249.88ZM410.75 243.96C410.75 247.64 410.11 250.787 408.83 253.4C407.55 255.96 405.79 258.04 403.55 259.64C401.363 261.24 398.776 262.413 395.79 263.16C392.856 263.907 389.683 264.28 386.27 264.28V277H369.23V223.64H386.27C389.683 223.64 392.856 224.013 395.79 224.76C398.776 225.507 401.363 226.68 403.55 228.28C405.79 229.88 407.55 231.987 408.83 234.6C410.11 237.16 410.75 240.28 410.75 243.96ZM386.27 249.88H386.99C389.23 249.88 390.83 249.373 391.79 248.36C392.803 247.293 393.31 245.827 393.31 243.96C393.31 242.093 392.803 240.653 391.79 239.64C390.83 238.573 389.23 238.04 386.99 238.04H386.27V249.88ZM414.777 223.64H432.857V277H414.777V223.64ZM438.448 223.64H469.888V237.64H455.488V243.56H469.648V256.84H455.488V263H470.448V277H438.448V223.64Z" fill="white"/>
<path d="M101.919 335.98H115.479L120.099 349.96L124.719 335.98H133.479L138.099 349.96L142.719 335.98H156.279L143.079 376H133.119L129.099 363.88L125.079 376H115.119L101.919 335.98ZM157.192 335.98H180.772V346.48H169.972V350.92H180.592V360.88H169.972V365.5H181.192V376H157.192V335.98ZM184.789 335.98H200.449C202.449 335.98 204.269 336.22 205.909 336.7C207.589 337.14 209.009 337.82 210.169 338.74C211.369 339.62 212.289 340.74 212.929 342.1C213.609 343.42 213.949 344.98 213.949 346.78C213.949 348.06 213.789 349.16 213.469 350.08C213.149 350.96 212.809 351.7 212.449 352.3C212.009 353.02 211.509 353.62 210.949 354.1C211.829 354.66 212.629 355.38 213.349 356.26C213.949 357.02 214.489 357.98 214.969 359.14C215.489 360.3 215.749 361.72 215.749 363.4C215.749 365.32 215.409 367.06 214.729 368.62C214.049 370.18 213.069 371.52 211.789 372.64C210.549 373.72 209.009 374.56 207.169 375.16C205.369 375.72 203.349 376 201.109 376H184.789V335.98ZM198.589 366.58C201.629 366.58 203.149 365.42 203.149 363.1C203.149 360.78 201.629 359.62 198.589 359.62H197.149V366.58H198.589ZM201.589 348.16C201.589 346.32 200.589 345.4 198.589 345.4H197.149V350.92H198.589C200.589 350.92 201.589 350 201.589 348.16ZM230.434 376V335.98H241.534C245.294 335.98 248.634 336.4 251.554 337.24C254.514 338.08 256.994 339.34 258.994 341.02C261.034 342.7 262.574 344.8 263.614 347.32C264.694 349.8 265.234 352.68 265.234 355.96C265.234 359.24 264.694 362.14 263.614 364.66C262.574 367.14 261.034 369.22 258.994 370.9C256.994 372.58 254.514 373.86 251.554 374.74C248.634 375.58 245.294 376 241.534 376H230.434ZM243.214 364.6C246.214 364.6 248.534 363.9 250.174 362.5C251.814 361.06 252.634 358.88 252.634 355.96C252.634 353.04 251.814 350.88 250.174 349.48C248.534 348.08 246.214 347.38 243.214 347.38V364.6ZM268.52 335.98H292.1V346.48H281.3V350.92H291.92V360.88H281.3V365.5H292.52V376H268.52V335.98ZM295.038 363.58C295.918 363.86 296.838 364.08 297.798 364.24C298.598 364.44 299.498 364.6 300.498 364.72C301.538 364.84 302.578 364.9 303.618 364.9C305.458 364.9 306.378 364.22 306.378 362.86C306.378 362.34 306.098 361.82 305.538 361.3C304.978 360.74 304.258 360.14 303.378 359.5C302.538 358.82 301.618 358.08 300.618 357.28C299.658 356.48 298.738 355.56 297.858 354.52C297.018 353.48 296.318 352.32 295.758 351.04C295.198 349.72 294.918 348.22 294.918 346.54C294.918 344.66 295.258 343 295.938 341.56C296.618 340.12 297.558 338.92 298.758 337.96C299.958 337 301.358 336.28 302.958 335.8C304.598 335.28 306.338 335.02 308.178 335.02C309.138 335.02 310.098 335.08 311.058 335.2C312.018 335.28 312.878 335.36 313.638 335.44C314.518 335.56 315.378 335.68 316.218 335.8V347.02C315.898 346.98 315.538 346.94 315.138 346.9C314.818 346.86 314.458 346.82 314.058 346.78C313.658 346.74 313.238 346.72 312.798 346.72C312.558 346.72 312.258 346.74 311.898 346.78C311.538 346.78 311.198 346.82 310.878 346.9C310.558 346.98 310.278 347.12 310.038 347.32C309.798 347.52 309.678 347.8 309.678 348.16C309.678 348.48 309.938 348.88 310.458 349.36C311.018 349.84 311.678 350.4 312.438 351.04C313.238 351.68 314.098 352.42 315.018 353.26C315.978 354.1 316.838 355.06 317.598 356.14C318.398 357.22 319.058 358.44 319.578 359.8C320.138 361.16 320.418 362.68 320.418 364.36C320.418 366.12 320.138 367.78 319.578 369.34C319.018 370.86 318.138 372.2 316.938 373.36C315.778 374.48 314.278 375.36 312.438 376C310.598 376.68 308.418 377.02 305.898 377.02C304.378 377.02 302.958 376.94 301.638 376.78C300.358 376.66 299.218 376.5 298.218 376.3C297.058 376.1 295.998 375.86 295.038 375.58V363.58ZM323.129 335.98H336.689V376H323.129V335.98ZM366.383 349.6C365.663 348.96 364.763 348.48 363.683 348.16C362.603 347.8 361.543 347.62 360.503 347.62C359.343 347.62 358.283 347.84 357.323 348.28C356.363 348.68 355.523 349.26 354.803 350.02C354.123 350.74 353.583 351.62 353.183 352.66C352.783 353.7 352.583 354.82 352.583 356.02C352.583 357.22 352.803 358.34 353.243 359.38C353.683 360.42 354.283 361.32 355.043 362.08C355.803 362.8 356.683 363.38 357.683 363.82C358.723 364.22 359.823 364.42 360.983 364.42C362.343 364.42 363.583 364.14 364.703 363.58C365.823 362.98 366.783 362.18 367.583 361.18H363.983V352.78H379.403V366.1C378.483 367.74 377.383 369.24 376.103 370.6C374.823 371.92 373.383 373.06 371.783 374.02C370.223 374.98 368.523 375.72 366.683 376.24C364.843 376.76 362.943 377.02 360.983 377.02C358.103 377.02 355.383 376.48 352.823 375.4C350.263 374.32 348.023 372.84 346.103 370.96C344.223 369.08 342.723 366.86 341.603 364.3C340.523 361.74 339.983 358.98 339.983 356.02C339.983 353.14 340.503 350.42 341.543 347.86C342.583 345.3 344.003 343.08 345.803 341.2C347.643 339.28 349.803 337.78 352.283 336.7C354.803 335.58 357.503 335.02 360.383 335.02C362.623 335.02 364.563 335.24 366.203 335.68C367.843 336.12 369.223 336.62 370.343 337.18C371.663 337.82 372.763 338.52 373.643 339.28L366.383 349.6ZM382.719 335.98H393.219L404.259 351.4V335.98H416.799V376H406.239L395.259 360.64V376H382.719V335.98Z" fill="white"/>
<mask id="mask0" mask-type="alpha" maskUnits="userSpaceOnUse" x="52" y="222" width="419" height="156">
<path d="M52.3547 223.64H70.1147V263H84.8347V277H52.3547V223.64ZM86.4672 250.36C86.4672 246.52 87.1872 242.893 88.6272 239.48C90.1205 236.067 92.1205 233.107 94.6272 230.6C97.1872 228.04 100.174 226.04 103.587 224.6C107.001 223.107 110.627 222.36 114.467 222.36C118.307 222.36 121.934 223.107 125.347 224.6C128.761 226.04 131.721 228.04 134.227 230.6C136.787 233.107 138.787 236.067 140.227 239.48C141.721 242.893 142.467 246.52 142.467 250.36C142.467 254.2 141.721 257.827 140.227 261.24C138.787 264.653 136.787 267.64 134.227 270.2C131.721 272.707 128.761 274.707 125.347 276.2C121.934 277.64 118.307 278.36 114.467 278.36C110.627 278.36 107.001 277.64 103.587 276.2C100.174 274.707 97.1872 272.707 94.6272 270.2C92.1205 267.64 90.1205 264.653 88.6272 261.24C87.1872 257.827 86.4672 254.2 86.4672 250.36ZM103.267 250.36C103.267 251.907 103.561 253.373 104.147 254.76C104.734 256.093 105.534 257.267 106.547 258.28C107.561 259.293 108.734 260.093 110.067 260.68C111.454 261.267 112.921 261.56 114.467 261.56C116.014 261.56 117.454 261.267 118.787 260.68C120.174 260.093 121.374 259.293 122.387 258.28C123.401 257.267 124.201 256.093 124.787 254.76C125.374 253.373 125.667 251.907 125.667 250.36C125.667 248.813 125.374 247.373 124.787 246.04C124.201 244.653 123.401 243.453 122.387 242.44C121.374 241.427 120.174 240.627 118.787 240.04C117.454 239.453 116.014 239.16 114.467 239.16C112.921 239.16 111.454 239.453 110.067 240.04C108.734 240.627 107.561 241.427 106.547 242.44C105.534 243.453 104.734 244.653 104.147 246.04C103.561 247.373 103.267 248.813 103.267 250.36ZM146.886 223.64H160.886L175.606 244.2V223.64H192.326V277H178.246L163.606 256.52V277H146.886V223.64ZM197.902 223.64H229.342V237.64H214.942V243.56H229.102V256.84H214.942V263H229.902V277H197.902V223.64ZM250.714 223.64H267.754V241.8H277.274V223.64H294.394V277H277.274V257.24H267.754V277H250.714V223.64ZM300.011 223.64H318.091V277H300.011V223.64ZM365.203 243.96C365.203 247.64 364.563 250.787 363.283 253.4C362.003 255.96 360.243 258.04 358.003 259.64C355.816 261.24 353.229 262.413 350.243 263.16C347.309 263.907 344.136 264.28 340.723 264.28V277H323.683V223.64H340.723C344.136 223.64 347.309 224.013 350.243 224.76C353.229 225.507 355.816 226.68 358.003 228.28C360.243 229.88 362.003 231.987 363.283 234.6C364.563 237.16 365.203 240.28 365.203 243.96ZM340.723 249.88H341.443C343.683 249.88 345.283 249.373 346.243 248.36C347.256 247.293 347.763 245.827 347.763 243.96C347.763 242.093 347.256 240.653 346.243 239.64C345.283 238.573 343.683 238.04 341.443 238.04H340.723V249.88ZM410.75 243.96C410.75 247.64 410.11 250.787 408.83 253.4C407.55 255.96 405.79 258.04 403.55 259.64C401.363 261.24 398.776 262.413 395.79 263.16C392.856 263.907 389.683 264.28 386.27 264.28V277H369.23V223.64H386.27C389.683 223.64 392.856 224.013 395.79 224.76C398.776 225.507 401.363 226.68 403.55 228.28C405.79 229.88 407.55 231.987 408.83 234.6C410.11 237.16 410.75 240.28 410.75 243.96ZM386.27 249.88H386.99C389.23 249.88 390.83 249.373 391.79 248.36C392.803 247.293 393.31 245.827 393.31 243.96C393.31 242.093 392.803 240.653 391.79 239.64C390.83 238.573 389.23 238.04 386.99 238.04H386.27V249.88ZM414.777 223.64H432.857V277H414.777V223.64ZM438.448 223.64H469.888V237.64H455.488V243.56H469.648V256.84H455.488V263H470.448V277H438.448V223.64Z" fill="#EEEEEE"/>
<path d="M101.919 335.98H115.479L120.099 349.96L124.719 335.98H133.479L138.099 349.96L142.719 335.98H156.279L143.079 376H133.119L129.099 363.88L125.079 376H115.119L101.919 335.98ZM157.192 335.98H180.772V346.48H169.972V350.92H180.592V360.88H169.972V365.5H181.192V376H157.192V335.98ZM184.789 335.98H200.449C202.449 335.98 204.269 336.22 205.909 336.7C207.589 337.14 209.009 337.82 210.169 338.74C211.369 339.62 212.289 340.74 212.929 342.1C213.609 343.42 213.949 344.98 213.949 346.78C213.949 348.06 213.789 349.16 213.469 350.08C213.149 350.96 212.809 351.7 212.449 352.3C212.009 353.02 211.509 353.62 210.949 354.1C211.829 354.66 212.629 355.38 213.349 356.26C213.949 357.02 214.489 357.98 214.969 359.14C215.489 360.3 215.749 361.72 215.749 363.4C215.749 365.32 215.409 367.06 214.729 368.62C214.049 370.18 213.069 371.52 211.789 372.64C210.549 373.72 209.009 374.56 207.169 375.16C205.369 375.72 203.349 376 201.109 376H184.789V335.98ZM198.589 366.58C201.629 366.58 203.149 365.42 203.149 363.1C203.149 360.78 201.629 359.62 198.589 359.62H197.149V366.58H198.589ZM201.589 348.16C201.589 346.32 200.589 345.4 198.589 345.4H197.149V350.92H198.589C200.589 350.92 201.589 350 201.589 348.16ZM230.434 376V335.98H241.534C245.294 335.98 248.634 336.4 251.554 337.24C254.514 338.08 256.994 339.34 258.994 341.02C261.034 342.7 262.574 344.8 263.614 347.32C264.694 349.8 265.234 352.68 265.234 355.96C265.234 359.24 264.694 362.14 263.614 364.66C262.574 367.14 261.034 369.22 258.994 370.9C256.994 372.58 254.514 373.86 251.554 374.74C248.634 375.58 245.294 376 241.534 376H230.434ZM243.214 364.6C246.214 364.6 248.534 363.9 250.174 362.5C251.814 361.06 252.634 358.88 252.634 355.96C252.634 353.04 251.814 350.88 250.174 349.48C248.534 348.08 246.214 347.38 243.214 347.38V364.6ZM268.52 335.98H292.1V346.48H281.3V350.92H291.92V360.88H281.3V365.5H292.52V376H268.52V335.98ZM295.038 363.58C295.918 363.86 296.838 364.08 297.798 364.24C298.598 364.44 299.498 364.6 300.498 364.72C301.538 364.84 302.578 364.9 303.618 364.9C305.458 364.9 306.378 364.22 306.378 362.86C306.378 362.34 306.098 361.82 305.538 361.3C304.978 360.74 304.258 360.14 303.378 359.5C302.538 358.82 301.618 358.08 300.618 357.28C299.658 356.48 298.738 355.56 297.858 354.52C297.018 353.48 296.318 352.32 295.758 351.04C295.198 349.72 294.918 348.22 294.918 346.54C294.918 344.66 295.258 343 295.938 341.56C296.618 340.12 297.558 338.92 298.758 337.96C299.958 337 301.358 336.28 302.958 335.8C304.598 335.28 306.338 335.02 308.178 335.02C309.138 335.02 310.098 335.08 311.058 335.2C312.018 335.28 312.878 335.36 313.638 335.44C314.518 335.56 315.378 335.68 316.218 335.8V347.02C315.898 346.98 315.538 346.94 315.138 346.9C314.818 346.86 314.458 346.82 314.058 346.78C313.658 346.74 313.238 346.72 312.798 346.72C312.558 346.72 312.258 346.74 311.898 346.78C311.538 346.78 311.198 346.82 310.878 346.9C310.558 346.98 310.278 347.12 310.038 347.32C309.798 347.52 309.678 347.8 309.678 348.16C309.678 348.48 309.938 348.88 310.458 349.36C311.018 349.84 311.678 350.4 312.438 351.04C313.238 351.68 314.098 352.42 315.018 353.26C315.978 354.1 316.838 355.06 317.598 356.14C318.398 357.22 319.058 358.44 319.578 359.8C320.138 361.16 320.418 362.68 320.418 364.36C320.418 366.12 320.138 367.78 319.578 369.34C319.018 370.86 318.138 372.2 316.938 373.36C315.778 374.48 314.278 375.36 312.438 376C310.598 376.68 308.418 377.02 305.898 377.02C304.378 377.02 302.958 376.94 301.638 376.78C300.358 376.66 299.218 376.5 298.218 376.3C297.058 376.1 295.998 375.86 295.038 375.58V363.58ZM323.129 335.98H336.689V376H323.129V335.98ZM366.383 349.6C365.663 348.96 364.763 348.48 363.683 348.16C362.603 347.8 361.543 347.62 360.503 347.62C359.343 347.62 358.283 347.84 357.323 348.28C356.363 348.68 355.523 349.26 354.803 350.02C354.123 350.74 353.583 351.62 353.183 352.66C352.783 353.7 352.583 354.82 352.583 356.02C352.583 357.22 352.803 358.34 353.243 359.38C353.683 360.42 354.283 361.32 355.043 362.08C355.803 362.8 356.683 363.38 357.683 363.82C358.723 364.22 359.823 364.42 360.983 364.42C362.343 364.42 363.583 364.14 364.703 363.58C365.823 362.98 366.783 362.18 367.583 361.18H363.983V352.78H379.403V366.1C378.483 367.74 377.383 369.24 376.103 370.6C374.823 371.92 373.383 373.06 371.783 374.02C370.223 374.98 368.523 375.72 366.683 376.24C364.843 376.76 362.943 377.02 360.983 377.02C358.103 377.02 355.383 376.48 352.823 375.4C350.263 374.32 348.023 372.84 346.103 370.96C344.223 369.08 342.723 366.86 341.603 364.3C340.523 361.74 339.983 358.98 339.983 356.02C339.983 353.14 340.503 350.42 341.543 347.86C342.583 345.3 344.003 343.08 345.803 341.2C347.643 339.28 349.803 337.78 352.283 336.7C354.803 335.58 357.503 335.02 360.383 335.02C362.623 335.02 364.563 335.24 366.203 335.68C367.843 336.12 369.223 336.62 370.343 337.18C371.663 337.82 372.763 338.52 373.643 339.28L366.383 349.6ZM382.719 335.98H393.219L404.259 351.4V335.98H416.799V376H406.239L395.259 360.64V376H382.719V335.98Z" fill="#EEEEEE"/>
</mask>
<g mask="url(#mask0)">
<path d="M81 116L406 483.5L229.5 595L-81 341L81 116Z" fill="#FF7730" stroke="black"/>
</g>
<g filter="url(#filter0_d)">
<line x1="191" y1="197.5" x2="330" y2="197.5" stroke="#EEEEEE" stroke-width="11"/>
<line x1="257.5" y1="203" x2="257.5" y2="161" stroke="#EEEEEE" stroke-width="25"/>
<rect x="135" y="61" width="245" height="104" rx="8" fill="#EEEEEE"/>
<rect x="152" y="72" width="211" height="83" rx="8" fill="#FF7730"/>
<line x1="241.681" y1="65.3753" x2="329.082" y2="157.517" stroke="#EEEEEE" stroke-width="8"/>
</g>
<defs>
<filter id="filter0_d" x="128" y="54" width="269" height="166" filterUnits="userSpaceOnUse" color-interpolation-filters="sRGB">
<feFlood flood-opacity="0" result="BackgroundImageFix"/>
<feColorMatrix in="SourceAlpha" type="matrix" values="0 0 0 0 0 0 0 0 0 0 0 0 0 0 0 0 0 0 127 0" result="hardAlpha"/>
<feOffset dx="5" dy="5"/>
<feGaussianBlur stdDeviation="6"/>
<feComposite in2="hardAlpha" operator="out"/>
<feColorMatrix type="matrix" values="0 0 0 0 0 0 0 0 0 0 0 0 0 0 0 0 0 0 0.5 0"/>
<feBlend mode="normal" in2="BackgroundImageFix" result="effect1_dropShadow"/>
<feBlend mode="normal" in="SourceGraphic" in2="effect1_dropShadow" result="shape"/>
</filter>
</defs>
</svg>
